PathFileType	4	(X/Y/Z)	Run_400 05
DataRate	CameraRate	NumFrames	NumMarkers	Units	OrigDataRate	OrigDataStartFrame	OrigNumFrames
120	120	5	42	mm	120	128	128
Frame#	Time	LASI			RASI			LPSI			RPSI			RTH1			RTH2			RTH3			LTH1			LTH2			LTH3			RTB1			RTB2			RTB3			LTB1			LTB2			LTB3			RCAL			RTOE			RMT5			LCAL			LTOE			LMT5			LACR			RACR			CLAV			C7			RUA1			RUA2			RUA3			RLEL			RMEL			LUA1			LUA2			LUA3			LLEL			LMEL			RFAsuperior			RFAradius			RFAulna			LFAsuperior			LFAradius			LFAulna			
		X1	Y1	Z1	X2	Y2	Z2	X3	Y3	Z3	X4	Y4	Z4	X5	Y5	Z5	X6	Y6	Z6	X7	Y7	Z7	X8	Y8	Z8	X9	Y9	Z9	X10	Y10	Z10	X11	Y11	Z11	X12	Y12	Z12	X13	Y13	Z13	X14	Y14	Z14	X15	Y15	Z15	X16	Y16	Z16	X17	Y17	Z17	X18	Y18	Z18	X19	Y19	Z19	X20	Y20	Z20	X21	Y21	Z21	X22	Y22	Z22	X23	Y23	Z23	X24	Y24	Z24	X25	Y25	Z25	X26	Y26	Z26	X27	Y27	Z27	X28	Y28	Z28	X29	Y29	Z29	X30	Y30	Z30	X31	Y31	Z31	X32	Y32	Z32	X33	Y33	Z33	X34	Y34	Z34	X35	Y35	Z35	X36	Y36	Z36	X37	Y37	Z37	X38	Y38	Z38	X39	Y39	Z39	X40	Y40	Z40	X41	Y41	Z41	X42	Y42	Z42	

128	1.158333	971.437066	1094.395011	-421.467243	979.871296	1084.252067	-163.659964	798.608455	1128.763314	-337.747727	802.626429	1129.911881	-253.172674	856.583941	920.318662	-123.775523	848.940085	802.036714	-146.328307	732.353129	739.307246	-179.925546	976.088225	888.518127	-478.419263	1086.958254	803.47992	-463.231303	1074.507014	677.267558	-430.401499	578.890125	489.020828	-276.289375	504.845048	480.111153	-211.659286	440.711114	404.305846	-284.675919	1211.263293	482.281058	-364.793056	1203.858714	389.328126	-414.949233	1247.6818	286.231686	-344.951972	251.698123	470.466128	-303.113147	282.229957	238.479138	-321.733603	226.488426	293.709059	-239.583457	1184.976744	117.501013	-324.486952	1406.118052	193.843151	-303.490148	1361.773135	127.95905	-384.174138	935.572374	1560.923886	-477.439958	1017.819253	1573.497818	-152.466549	1026.317138	1514.408441	-292.514849	898.467756	1592.184958	-289.351565	1022.660097	1476.960438	-70.048349	1031.537816	1387.894283	-70.064273	970.29467	1380.077334	-18.285127	976.229642	1242.869873	28.77144	911.3994719999999	1229.479113	-29.623306	871.201957	1504.100921	-542.153357	854.959636	1435.489887	-549.192358	765.717553	1458.119958	-508.565396	678.1258340000001	1319.558384	-571.520955	659.570525	1316.534462	-489.727006	1058.575185	1273.218904	-38.406742	1113.587474	1346.640406	-190.58057	1156.65558	1291.571116	-164.513694	769.533544	1290.72244	-570.184994	932.51162	1257.40244	-496.968527	913.082949	1190.504836	-517.087533	
129	1.166667	971.172806	1093.485132	-420.919746	981.143605	1082.359881	-164.602764	798.495289	1126.667265	-337.121604	803.109386	1127.403044	-252.563381	861.2911800000001	916.7504740000001	-124.911403	855.2676290000001	798.0264110000001	-147.697461	740.063149	733.422491	-180.474813	973.630524	884.3009970000001	-481.730946	1083.0032	796.1134949999999	-465.981621	1070.069863	672.735803	-430.483362	585.012195	490.335511	-276.887719	510.851254	486.403907	-211.979664	447.113524	410.305523	-284.937281	1207.491897	478.660858	-363.830264	1201.636264	385.417646	-413.432656	1247.35826	283.591472	-343.104966	256.197685	495.956725	-301.151375	271.943074	262.839117	-321.679905	220.753356	320.654774	-238.59467	1187.751548	112.959149	-321.125253	1406.929065	194.269401	-300.531385	1364.334725	126.125598	-380.220436	936.540837	1557.991908	-477.986556	1019.245576	1570.960107	-152.59321	1026.977231	1512.14161	-292.895882	899.587021	1590.495239	-290.156185	1022.836403	1473.880678	-69.897133	1029.994036	1385.146002	-69.381372	968.2945099999999	1378.436731	-18.065261	971.581406	1241.241683	29.069095	906.331854	1229.241292	-29.381609	872.722371	1499.944761	-542.839626	857.312897	1431.168773	-549.711035	767.697044	1452.389379	-510.401129	682.454628	1313.105661	-573.951719	663.6683410000001	1309.451696	-492.274249	1055.075848	1267.912227	-38.114078	1112.999308	1337.631739	-191.22845	1154.154909	1281.629852	-164.156058	774.335387	1285.212195	-572.5756280000001	937.081022	1253.734828	-497.752161	918.874176	1186.671132	-519.186563	
130	1.175	970.64819	1092.091061	-420.524883	981.999143	1079.674592	-165.57587	798.2167020000001	1124.264723	-336.565457	803.146125	1124.165971	-251.933697	865.855744	912.337523	-126.126794	861.884218	793.269169	-148.937104	748.385595	726.500259	-181.03019	970.590197	879.705189	-484.011456	1079.595337	789.60911	-468.929916	1066.82393	668.687169	-430.702691	593.005164	490.662664	-276.880081	518.971077	491.992104	-211.925937	455.501234	415.731154	-284.839716	1203.275542	474.667885	-362.989155	1197.434033	380.940411	-411.861441	1244.031735	279.805847	-341.323285	264.695038	520.684361	-298.702619	264.396773	287.518308	-321.234887	218.667206	347.736169	-236.952139	1184.876481	108.069202	-318.106764	1403.886156	190.924798	-297.8271	1361.615521	121.816339	-376.867489	937.623278	1554.221838	-478.432481	1020.427002	1567.55786	-152.729261	1027.606943	1508.829561	-293.2179	900.61563	1587.936697	-291.095379	1022.257046	1470.357154	-69.54689500000001	1027.604669	1381.627453	-68.794406	965.530071	1376.092004	-17.905954	966.2918560000001	1238.89979	29.37243	901.132583	1228.196313	-29.338667	874.638251	1494.955725	-543.833903	860.124109	1425.934317	-550.36079	770.153768	1445.583614	-512.71367	687.6351550000001	1305.415491	-576.91366	668.296644	1301.143882	-495.394036	1051.000041	1261.776897	-37.479254	1112.617202	1326.988991	-191.429283	1151.555426	1270.10159	-163.019264	779.994762	1278.444165	-575.310275	942.309906	1249.004863	-498.556139	925.425694	1181.86265	-521.277517	
131	1.183333	969.942013	1090.036502	-420.492147	982.621163	1076.100302	-166.649345	797.773699	1121.301311	-336.096568	802.916409	1120.049881	-251.352799	870.257263	907.120487	-127.359666	868.782006	787.912157	-149.994763	757.289293	718.664307	-181.494985	967.535469	875.370364	-484.882502	1076.746455	784.477569	-471.649173	1064.13017	664.680476	-430.6689	602.822927	490.103821	-276.410065	529.1247530000001	496.79303	-211.498733	465.938589	420.366441	-284.376364	1198.431732	469.878829	-362.331001	1191.289707	375.577976	-410.397712	1237.766076	274.591082	-339.622585	277.233899	544.006203	-296.009405	259.894025	311.960412	-320.145403	220.156755	374.449636	-234.721742	1176.900523	102.671733	-315.353189	1397.224486	184.337426	-295.403034	1354.124808	114.763867	-373.894891	938.8290909999999	1549.624357	-478.875387	1021.34743	1563.340332	-152.834594	1028.333539	1504.474771	-293.432533	901.524355	1584.46598	-292.096766	1021.058225	1466.326382	-69.037674	1024.599872	1377.330463	-68.283292	962.170065	1373.036715	-17.824458	960.466743	1235.845621	29.674416	895.756722	1226.342605	-29.469616	876.951223	1489.143962	-545.0813869999999	863.44717	1419.767571	-551.27781	773.043894	1437.765837	-515.390489	693.633314	1296.533145	-580.357207	673.179025	1291.68166	-498.993221	1046.401515	1254.835391	-36.594002	1112.33713	1314.810466	-191.115885	1148.763394	1257.077831	-161.18137	786.488333	1270.506376	-578.334531	948.1799569999999	1243.255934	-499.437277	932.669089	1176.134869	-523.2823509999999	
132	1.191667	969.198606	1087.167345	-420.876413	983.154991	1071.631509	-167.819307	797.209826	1117.483817	-335.701943	802.603396	1114.935609	-250.886952	874.50908	901.184154	-128.472159	875.941	782.065934	-150.7755	766.6444300000001	710.055429	-181.876031	965.051392	871.662431	-484.305697	1074.127747	780.84441	-473.337992	1061.250248	660.336546	-430.234507	614.337804	488.761484	-275.67809	541.201143	500.690909	-210.725684	478.373891	424.031745	-283.565404	1192.688904	463.899655	-361.827251	1183.425061	369.138211	-409.152458	1228.774079	267.755255	-338.18023	293.331997	565.3969070000001	-293.358402	258.865887	335.558343	-318.217047	225.128211	400.245374	-231.967177	1164.602138	97.39049	-312.537934	1386.874599	174.79299	-293.314823	1342.082193	104.735203	-371.163681	940.189251	1544.253216	-479.403535	1022.012188	1558.333312	-152.872274	1029.207822	1499.1686	-293.505583	902.3133779999999	1580.108273	-293.079693	1019.380264	1461.636401	-68.396593	1021.182986	1372.251883	-67.777215	958.379971	1369.246447	-17.820481	954.189886	1232.075626	29.957817	890.134243	1223.69178	-29.759452	879.660213	1482.469543	-546.5301040000001	867.34582	1412.67304	-552.598677	776.306502	1428.977717	-518.386935	700.416639	1286.511906	-584.247607	678.183766	1281.137632	-502.982773	1041.342343	1247.052072	-35.517608	1112.0357	1301.153613	-190.261361	1145.656799	1242.623593	-158.748141	793.7653	1261.455199	-581.581657	954.684248	1236.524847	-500.458098	940.510843	1169.431581	-525.051258	
